# xmcd
#
# Track frame offsets:
#	150
#	16419
#	29039
#	35788
#	45333
#	57535
#	68246
#	82121
#	86705
#	97054
#	100422
#	105087
#	106153
#	110418
#	117313
#	118391
#	129215
#	139507
#	147671
#	158222
#	169071
#	182421
#	193101
#
# Disc length: 2706 seconds
#
# Revision: 0
# Processed by: cddbd v1.5.2PL0 Copyright (c) Steve Scherf et al.
# Submitted via: audiograbber 1.83.01
#
DISCID=490a9017
DTITLE=NoiseFreaK - Sick Sessions
DYEAR=2009
DGENRE=Death Metal
TTITLE0=Korruption
TTITLE1=Du oder ich
TTITLE2=L.T.K.B.
TTITLE3=Napalm
TTITLE4=Allesfresser
TTITLE5=Blender
TTITLE6=Brot and Spiele
TTITLE7=Therapie
TTITLE8=Todesstrafe
TTITLE9=Dein Blut
TTITLE10=Neid
TTITLE11=Ich bin mein Feind
TTITLE12=Pumpe
TTITLE13=Schnacker
TTITLE14=F.L.R.
TTITLE15=Wait the time
TTITLE16=They waste me
TTITLE17=Shock brain
TTITLE18=Menschenklonen
TTITLE19=Snob
TTITLE20=Stillstand
TTITLE21=Keine Chance
TTITLE22=Stupid rigmarole
EXTD=
EXTT0=
EXTT1=
EXTT2=
EXTT3=
EXTT4=
EXTT5=
EXTT6=
EXTT7=
EXTT8=
EXTT9=
EXTT10=
EXTT11=
EXTT12=
EXTT13=
EXTT14=
EXTT15=
EXTT16=
EXTT17=
EXTT18=
EXTT19=
EXTT20=
EXTT21=
EXTT22=
PLAYORDER=
